<svg width="38" height="19" viewBox="0 0 38 19" fill="none" xmlns="http://www.w3.org/2000/svg">
<path d="M32.5 0.120029L38 9.13006L33 18.1406L28 18.1406L33.0508 9.13006L28 0.120029L32.5 0.120029Z" fill="#3CDE98"/>
<path d="M22 1C22 1.55228 21.5523 2 21 2C20.4477 2 20 1.55228 20 1C20 0.447715 20.4477 0 21 0C21.5523 0 22 0.447715 22 1Z" fill="url(#paint0_linear_333_532)"/>
<path d="M18 1C18 1.55228 17.5523 2 17 2C16.4477 2 16 1.55228 16 1C16 0.447715 16.4477 0 17 0C17.5523 0 18 0.447715 18 1Z" fill="url(#paint1_linear_333_532)"/>
<path d="M14 1C14 1.55228 13.5523 2 13 2C12.4477 2 12 1.55228 12 1C12 0.447715 12.4477 0 13 0C13.5523 0 14 0.447715 14 1Z" fill="url(#paint2_linear_333_532)"/>
<path d="M10 1C10 1.55228 9.55229 2 9 2C8.44771 2 8 1.55228 8 1C8 0.447715 8.44771 0 9 0C9.55229 0 10 0.447715 10 1Z" fill="url(#paint3_linear_333_532)"/>
<path d="M6 1C6 1.55228 5.55228 2 5 2C4.44772 2 4 1.55228 4 1C4 0.447715 4.44772 0 5 0C5.55228 0 6 0.447715 6 1Z" fill="url(#paint4_linear_333_532)"/>
<path d="M2 1C2 1.55228 1.55228 2 1 2C0.447715 2 0 1.55228 0 1C0 0.447715 0.447715 0 1 0C1.55228 0 2 0.447715 2 1Z" fill="url(#paint5_linear_333_532)"/>
<path d="M22 9C22 9.55229 21.5523 10 21 10C20.4477 10 20 9.55229 20 9C20 8.44771 20.4477 8 21 8C21.5523 8 22 8.44771 22 9Z" fill="url(#paint6_linear_333_532)"/>
<path d="M18 9C18 9.55229 17.5523 10 17 10C16.4477 10 16 9.55229 16 9C16 8.44771 16.4477 8 17 8C17.5523 8 18 8.44771 18 9Z" fill="url(#paint7_linear_333_532)"/>
<path d="M14 9C14 9.55229 13.5523 10 13 10C12.4477 10 12 9.55229 12 9C12 8.44771 12.4477 8 13 8C13.5523 8 14 8.44771 14 9Z" fill="url(#paint8_linear_333_532)"/>
<path d="M10 9C10 9.55229 9.55229 10 9 10C8.44771 10 8 9.55229 8 9C8 8.44771 8.44771 8 9 8C9.55229 8 10 8.44771 10 9Z" fill="url(#paint9_linear_333_532)"/>
<path d="M6 9C6 9.55229 5.55228 10 5 10C4.44772 10 4 9.55229 4 9C4 8.44771 4.44772 8 5 8C5.55228 8 6 8.44771 6 9Z" fill="url(#paint10_linear_333_532)"/>
<path d="M2 9C2 9.55229 1.55228 10 1 10C0.447715 10 0 9.55229 0 9C0 8.44771 0.447715 8 1 8C1.55228 8 2 8.44771 2 9Z" fill="url(#paint11_linear_333_532)"/>
<path d="M26 9C26 9.55229 25.5523 10 25 10C24.4477 10 24 9.55229 24 9C24 8.44771 24.4477 8 25 8C25.5523 8 26 8.44771 26 9Z" fill="url(#paint12_linear_333_532)"/>
<path d="M30 9C30 9.55229 29.5523 10 29 10C28.4477 10 28 9.55229 28 9C28 8.44771 28.4477 8 29 8C29.5523 8 30 8.44771 30 9Z" fill="url(#paint13_linear_333_532)"/>
<path d="M22 5C22 5.55228 21.5523 6 21 6C20.4477 6 20 5.55228 20 5C20 4.44772 20.4477 4 21 4C21.5523 4 22 4.44772 22 5Z" fill="url(#paint14_linear_333_532)"/>
<path d="M18 5C18 5.55228 17.5523 6 17 6C16.4477 6 16 5.55228 16 5C16 4.44772 16.4477 4 17 4C17.5523 4 18 4.44772 18 5Z" fill="url(#paint15_linear_333_532)"/>
<path d="M14 5C14 5.55228 13.5523 6 13 6C12.4477 6 12 5.55228 12 5C12 4.44772 12.4477 4 13 4C13.5523 4 14 4.44772 14 5Z" fill="url(#paint16_linear_333_532)"/>
<path d="M10 5C10 5.55228 9.55229 6 9 6C8.44771 6 8 5.55228 8 5C8 4.44772 8.44771 4 9 4C9.55229 4 10 4.44772 10 5Z" fill="url(#paint17_linear_333_532)"/>
<path d="M6 5C6 5.55228 5.55228 6 5 6C4.44772 6 4 5.55228 4 5C4 4.44772 4.44772 4 5 4C5.55228 4 6 4.44772 6 5Z" fill="url(#paint18_linear_333_532)"/>
<path d="M2 5C2 5.55228 1.55228 6 1 6C0.447715 6 0 5.55228 0 5C0 4.44772 0.447715 4 1 4C1.55228 4 2 4.44772 2 5Z" fill="url(#paint19_linear_333_532)"/>
<path d="M26 5C26 5.55228 25.5523 6 25 6C24.4477 6 24 5.55228 24 5C24 4.44772 24.4477 4 25 4C25.5523 4 26 4.44772 26 5Z" fill="url(#paint20_linear_333_532)"/>
<path d="M22 13C22 13.5523 21.5523 14 21 14C20.4477 14 20 13.5523 20 13C20 12.4477 20.4477 12 21 12C21.5523 12 22 12.4477 22 13Z" fill="url(#paint21_linear_333_532)"/>
<path d="M18 13C18 13.5523 17.5523 14 17 14C16.4477 14 16 13.5523 16 13C16 12.4477 16.4477 12 17 12C17.5523 12 18 12.4477 18 13Z" fill="url(#paint22_linear_333_532)"/>
<path d="M14 13C14 13.5523 13.5523 14 13 14C12.4477 14 12 13.5523 12 13C12 12.4477 12.4477 12 13 12C13.5523 12 14 12.4477 14 13Z" fill="url(#paint23_linear_333_532)"/>
<path d="M10 13C10 13.5523 9.55229 14 9 14C8.44771 14 8 13.5523 8 13C8 12.4477 8.44771 12 9 12C9.55229 12 10 12.4477 10 13Z" fill="url(#paint24_linear_333_532)"/>
<path d="M6 13C6 13.5523 5.55228 14 5 14C4.44772 14 4 13.5523 4 13C4 12.4477 4.44772 12 5 12C5.55228 12 6 12.4477 6 13Z" fill="url(#paint25_linear_333_532)"/>
<path d="M2 13C2 13.5523 1.55228 14 1 14C0.447715 14 0 13.5523 0 13C0 12.4477 0.447715 12 1 12C1.55228 12 2 12.4477 2 13Z" fill="url(#paint26_linear_333_532)"/>
<path d="M26 13C26 13.5523 25.5523 14 25 14C24.4477 14 24 13.5523 24 13C24 12.4477 24.4477 12 25 12C25.5523 12 26 12.4477 26 13Z" fill="url(#paint27_linear_333_532)"/>
<path d="M22 17C22 17.5523 21.5523 18 21 18C20.4477 18 20 17.5523 20 17C20 16.4477 20.4477 16 21 16C21.5523 16 22 16.4477 22 17Z" fill="url(#paint28_linear_333_532)"/>
<path d="M18 17C18 17.5523 17.5523 18 17 18C16.4477 18 16 17.5523 16 17C16 16.4477 16.4477 16 17 16C17.5523 16 18 16.4477 18 17Z" fill="url(#paint29_linear_333_532)"/>
<path d="M14 17C14 17.5523 13.5523 18 13 18C12.4477 18 12 17.5523 12 17C12 16.4477 12.4477 16 13 16C13.5523 16 14 16.4477 14 17Z" fill="url(#paint30_linear_333_532)"/>
<path d="M10 17C10 17.5523 9.55229 18 9 18C8.44771 18 8 17.5523 8 17C8 16.4477 8.44771 16 9 16C9.55229 16 10 16.4477 10 17Z" fill="url(#paint31_linear_333_532)"/>
<path d="M6 17C6 17.5523 5.55228 18 5 18C4.44772 18 4 17.5523 4 17C4 16.4477 4.44772 16 5 16C5.55228 16 6 16.4477 6 17Z" fill="url(#paint32_linear_333_532)"/>
<path d="M2 17C2 17.5523 1.55228 18 1 18C0.447715 18 0 17.5523 0 17C0 16.4477 0.447715 16 1 16C1.55228 16 2 16.4477 2 17Z" fill="url(#paint33_linear_333_532)"/>
<defs>
<linearGradient id="paint0_linear_333_532" x1="30" y1="9" x2="2.86102e-07" y2="9" gradientUnits="userSpaceOnUse">
<stop stop-color="#3CDE98"/>
<stop offset="1" stop-color="#3CDE98" stop-opacity="0.2"/>
</linearGradient>
<linearGradient id="paint1_linear_333_532" x1="30" y1="9" x2="2.86102e-07" y2="9" gradientUnits="userSpaceOnUse">
<stop stop-color="#3CDE98"/>
<stop offset="1" stop-color="#3CDE98" stop-opacity="0.2"/>
</linearGradient>
<linearGradient id="paint2_linear_333_532" x1="30" y1="9" x2="2.86102e-07" y2="9" gradientUnits="userSpaceOnUse">
<stop stop-color="#3CDE98"/>
<stop offset="1" stop-color="#3CDE98" stop-opacity="0.2"/>
</linearGradient>
<linearGradient id="paint3_linear_333_532" x1="30" y1="9" x2="2.86102e-07" y2="9" gradientUnits="userSpaceOnUse">
<stop stop-color="#3CDE98"/>
<stop offset="1" stop-color="#3CDE98" stop-opacity="0.2"/>
</linearGradient>
<linearGradient id="paint4_linear_333_532" x1="30" y1="9" x2="2.86102e-07" y2="9" gradientUnits="userSpaceOnUse">
<stop stop-color="#3CDE98"/>
<stop offset="1" stop-color="#3CDE98" stop-opacity="0.2"/>
</linearGradient>
<linearGradient id="paint5_linear_333_532" x1="30" y1="9" x2="2.86102e-07" y2="9" gradientUnits="userSpaceOnUse">
<stop stop-color="#3CDE98"/>
<stop offset="1" stop-color="#3CDE98" stop-opacity="0.2"/>
</linearGradient>
<linearGradient id="paint6_linear_333_532" x1="30" y1="9" x2="2.86102e-07" y2="9" gradientUnits="userSpaceOnUse">
<stop stop-color="#3CDE98"/>
<stop offset="1" stop-color="#3CDE98" stop-opacity="0.2"/>
</linearGradient>
<linearGradient id="paint7_linear_333_532" x1="30" y1="9" x2="2.86102e-07" y2="9" gradientUnits="userSpaceOnUse">
<stop stop-color="#3CDE98"/>
<stop offset="1" stop-color="#3CDE98" stop-opacity="0.2"/>
</linearGradient>
<linearGradient id="paint8_linear_333_532" x1="30" y1="9" x2="2.86102e-07" y2="9" gradientUnits="userSpaceOnUse">
<stop stop-color="#3CDE98"/>
<stop offset="1" stop-color="#3CDE98" stop-opacity="0.2"/>
</linearGradient>
<linearGradient id="paint9_linear_333_532" x1="30" y1="9" x2="2.86102e-07" y2="9" gradientUnits="userSpaceOnUse">
<stop stop-color="#3CDE98"/>
<stop offset="1" stop-color="#3CDE98" stop-opacity="0.2"/>
</linearGradient>
<linearGradient id="paint10_linear_333_532" x1="30" y1="9" x2="2.86102e-07" y2="9" gradientUnits="userSpaceOnUse">
<stop stop-color="#3CDE98"/>
<stop offset="1" stop-color="#3CDE98" stop-opacity="0.2"/>
</linearGradient>
<linearGradient id="paint11_linear_333_532" x1="30" y1="9" x2="2.86102e-07" y2="9" gradientUnits="userSpaceOnUse">
<stop stop-color="#3CDE98"/>
<stop offset="1" stop-color="#3CDE98" stop-opacity="0.2"/>
</linearGradient>
<linearGradient id="paint12_linear_333_532" x1="30" y1="9" x2="2.86102e-07" y2="9" gradientUnits="userSpaceOnUse">
<stop stop-color="#3CDE98"/>
<stop offset="1" stop-color="#3CDE98" stop-opacity="0.2"/>
</linearGradient>
<linearGradient id="paint13_linear_333_532" x1="30" y1="9" x2="2.86102e-07" y2="9" gradientUnits="userSpaceOnUse">
<stop stop-color="#3CDE98"/>
<stop offset="1" stop-color="#3CDE98" stop-opacity="0.2"/>
</linearGradient>
<linearGradient id="paint14_linear_333_532" x1="30" y1="9" x2="2.86102e-07" y2="9" gradientUnits="userSpaceOnUse">
<stop stop-color="#3CDE98"/>
<stop offset="1" stop-color="#3CDE98" stop-opacity="0.2"/>
</linearGradient>
<linearGradient id="paint15_linear_333_532" x1="30" y1="9" x2="2.86102e-07" y2="9" gradientUnits="userSpaceOnUse">
<stop stop-color="#3CDE98"/>
<stop offset="1" stop-color="#3CDE98" stop-opacity="0.2"/>
</linearGradient>
<linearGradient id="paint16_linear_333_532" x1="30" y1="9" x2="2.86102e-07" y2="9" gradientUnits="userSpaceOnUse">
<stop stop-color="#3CDE98"/>
<stop offset="1" stop-color="#3CDE98" stop-opacity="0.2"/>
</linearGradient>
<linearGradient id="paint17_linear_333_532" x1="30" y1="9" x2="2.86102e-07" y2="9" gradientUnits="userSpaceOnUse">
<stop stop-color="#3CDE98"/>
<stop offset="1" stop-color="#3CDE98" stop-opacity="0.2"/>
</linearGradient>
<linearGradient id="paint18_linear_333_532" x1="30" y1="9" x2="2.86102e-07" y2="9" gradientUnits="userSpaceOnUse">
<stop stop-color="#3CDE98"/>
<stop offset="1" stop-color="#3CDE98" stop-opacity="0.2"/>
</linearGradient>
<linearGradient id="paint19_linear_333_532" x1="30" y1="9" x2="2.86102e-07" y2="9" gradientUnits="userSpaceOnUse">
<stop stop-color="#3CDE98"/>
<stop offset="1" stop-color="#3CDE98" stop-opacity="0.2"/>
</linearGradient>
<linearGradient id="paint20_linear_333_532" x1="30" y1="9" x2="2.86102e-07" y2="9" gradientUnits="userSpaceOnUse">
<stop stop-color="#3CDE98"/>
<stop offset="1" stop-color="#3CDE98" stop-opacity="0.2"/>
</linearGradient>
<linearGradient id="paint21_linear_333_532" x1="30" y1="9" x2="2.86102e-07" y2="9" gradientUnits="userSpaceOnUse">
<stop stop-color="#3CDE98"/>
<stop offset="1" stop-color="#3CDE98" stop-opacity="0.2"/>
</linearGradient>
<linearGradient id="paint22_linear_333_532" x1="30" y1="9" x2="2.86102e-07" y2="9" gradientUnits="userSpaceOnUse">
<stop stop-color="#3CDE98"/>
<stop offset="1" stop-color="#3CDE98" stop-opacity="0.2"/>
</linearGradient>
<linearGradient id="paint23_linear_333_532" x1="30" y1="9" x2="2.86102e-07" y2="9" gradientUnits="userSpaceOnUse">
<stop stop-color="#3CDE98"/>
<stop offset="1" stop-color="#3CDE98" stop-opacity="0.2"/>
</linearGradient>
<linearGradient id="paint24_linear_333_532" x1="30" y1="9" x2="2.86102e-07" y2="9" gradientUnits="userSpaceOnUse">
<stop stop-color="#3CDE98"/>
<stop offset="1" stop-color="#3CDE98" stop-opacity="0.2"/>
</linearGradient>
<linearGradient id="paint25_linear_333_532" x1="30" y1="9" x2="2.86102e-07" y2="9" gradientUnits="userSpaceOnUse">
<stop stop-color="#3CDE98"/>
<stop offset="1" stop-color="#3CDE98" stop-opacity="0.2"/>
</linearGradient>
<linearGradient id="paint26_linear_333_532" x1="30" y1="9" x2="2.86102e-07" y2="9" gradientUnits="userSpaceOnUse">
<stop stop-color="#3CDE98"/>
<stop offset="1" stop-color="#3CDE98" stop-opacity="0.2"/>
</linearGradient>
<linearGradient id="paint27_linear_333_532" x1="30" y1="9" x2="2.86102e-07" y2="9" gradientUnits="userSpaceOnUse">
<stop stop-color="#3CDE98"/>
<stop offset="1" stop-color="#3CDE98" stop-opacity="0.2"/>
</linearGradient>
<linearGradient id="paint28_linear_333_532" x1="30" y1="9" x2="2.86102e-07" y2="9" gradientUnits="userSpaceOnUse">
<stop stop-color="#3CDE98"/>
<stop offset="1" stop-color="#3CDE98" stop-opacity="0.2"/>
</linearGradient>
<linearGradient id="paint29_linear_333_532" x1="30" y1="9" x2="2.86102e-07" y2="9" gradientUnits="userSpaceOnUse">
<stop stop-color="#3CDE98"/>
<stop offset="1" stop-color="#3CDE98" stop-opacity="0.2"/>
</linearGradient>
<linearGradient id="paint30_linear_333_532" x1="30" y1="9" x2="2.86102e-07" y2="9" gradientUnits="userSpaceOnUse">
<stop stop-color="#3CDE98"/>
<stop offset="1" stop-color="#3CDE98" stop-opacity="0.2"/>
</linearGradient>
<linearGradient id="paint31_linear_333_532" x1="30" y1="9" x2="2.86102e-07" y2="9" gradientUnits="userSpaceOnUse">
<stop stop-color="#3CDE98"/>
<stop offset="1" stop-color="#3CDE98" stop-opacity="0.2"/>
</linearGradient>
<linearGradient id="paint32_linear_333_532" x1="30" y1="9" x2="2.86102e-07" y2="9" gradientUnits="userSpaceOnUse">
<stop stop-color="#3CDE98"/>
<stop offset="1" stop-color="#3CDE98" stop-opacity="0.2"/>
</linearGradient>
<linearGradient id="paint33_linear_333_532" x1="30" y1="9" x2="2.86102e-07" y2="9" gradientUnits="userSpaceOnUse">
<stop stop-color="#3CDE98"/>
<stop offset="1" stop-color="#3CDE98" stop-opacity="0.2"/>
</linearGradient>
</defs>
</svg>
