<svg width="200" height="230" viewBox="0 0 200 230" fill="none" xmlns="http://www.w3.org/2000/svg">
<path d="M156.971 22.5044C149.012 24.2496 127.031 45.027 125.316 49.0741C123.977 52.2185 74.8097 147.123 65.7374 166.817L45.3212 155.037C44.4937 154.556 43.3202 155.518 43.3202 156.662V163.026C43.3202 163.462 43.5007 163.823 43.8167 164.004L61.8859 174.43L47.1417 199.962C46.5549 200.985 46.9009 202.279 47.924 202.88L55.3112 207.138C56.3342 207.725 57.6281 207.379 58.2299 206.356L72.9741 180.824L91.0433 191.251C91.3593 191.431 91.7655 191.416 92.1416 191.19L97.6482 188.001C98.6411 187.429 98.8819 185.925 98.0544 185.458L77.8036 173.768C90.9681 155.127 148.365 65.4883 149.885 63.1263C152.277 59.3951 159.454 30.2526 156.986 22.5044H156.971Z" fill="#AC9062"/>
<path d="M158.086 21L158.42 22.0476C159.14 24.3078 159.114 27.863 158.752 31.7358C158.382 35.6883 157.631 40.2321 156.732 44.6241C155.832 49.019 154.778 53.2916 153.796 56.7102C153.305 58.4185 152.829 59.9272 152.394 61.137C151.974 62.3064 151.551 63.315 151.151 63.9389L151.15 63.9403C149.682 66.2228 94.7476 152.009 79.9751 173.283L98.7918 184.147C99.9529 184.802 100.158 186.061 100.02 186.927C99.8768 187.823 99.3361 188.761 98.4009 189.301L98.4024 189.303L92.8957 192.492L92.8942 192.491C92.1352 192.938 91.1539 193.047 90.2966 192.557L90.2907 192.554L73.5251 182.879L59.5334 207.109L59.526 207.119C58.5099 208.846 56.3072 209.444 54.5629 208.444L54.56 208.441L47.1726 204.185L47.1608 204.177C45.4335 203.161 44.8366 200.957 45.837 199.213L45.8385 199.21L59.8287 174.98L43.0645 165.307L43.066 165.305C42.175 164.793 41.8158 163.861 41.8157 163.027V156.662C41.8157 155.586 42.3553 154.649 43.0601 154.074C43.7428 153.518 44.9264 153.071 46.0721 153.734L65.0695 164.694C70.2753 153.649 84.1332 126.387 97.0874 101.055C103.884 87.7649 110.44 74.9885 115.378 65.3435C120.339 55.6542 123.618 49.2185 123.931 48.4868C124.237 47.763 124.897 46.8488 125.676 45.8921C126.49 44.8925 127.549 43.7117 128.778 42.4232C131.238 39.8435 134.427 36.7821 137.806 33.7986C141.184 30.8168 144.776 27.8912 148.043 25.5929C151.244 23.3401 154.332 21.5434 156.649 21.0353L156.808 21H158.086ZM44.8247 162.847L63.9411 173.88L48.4449 200.714C48.2756 201.014 48.3689 201.394 48.683 201.581L56.0601 205.833L56.1761 205.886C56.4541 205.979 56.7687 205.872 56.9328 205.594L72.4231 178.77L91.5395 189.799L96.8935 186.699L96.8979 186.698C96.9208 186.685 96.9545 186.656 96.9875 186.605C96.9916 186.599 96.9927 186.591 96.9963 186.585L75.6231 174.247L76.5752 172.9C89.7155 154.293 147.082 64.7036 148.62 62.3124C148.818 62.0025 149.143 61.2845 149.562 60.1188C149.967 58.9905 150.425 57.548 150.905 55.8786C151.864 52.5416 152.899 48.3454 153.784 44.0202C154.67 39.6917 155.4 35.2627 155.756 31.4552C156.027 28.5571 156.065 26.1559 155.855 24.4527C154.261 25.123 152.177 26.3637 149.775 28.0539C146.628 30.2685 143.125 33.1176 139.799 36.0539C136.474 38.9888 133.348 41.9904 130.955 44.4992C129.758 45.7544 128.757 46.8739 128.009 47.7918C127.227 48.752 126.824 49.3725 126.702 49.6607L126.7 49.6636C126.338 50.5148 122.97 57.1188 118.057 66.7143C113.116 76.3636 106.562 89.134 99.7659 102.424C86.1637 129.023 71.624 157.636 67.1044 167.448L66.4139 168.945L44.8717 156.515C44.8678 156.522 44.8636 156.528 44.86 156.535C44.8325 156.59 44.8247 156.634 44.8247 156.662V162.847Z" fill="#6D5E40"/>
<path d="M66.3843 171.692C65.1055 170.895 64.6241 169.3 65.2259 167.931C72.8086 150.975 123.932 52.2938 125.301 49.0892C127.031 45.0421 148.997 24.2648 156.956 22.5195C159.408 30.2678 152.247 59.4102 149.855 63.1414C148.17 65.7743 76.9159 177.033 75.1256 177.184L66.3843 171.707V171.692Z" fill="#DABD89"/>
<path d="M47.9205 202.9L55.2952 207.158C56.317 207.748 57.6236 207.397 58.2136 206.376L75.0717 177.177C75.6616 176.155 75.3115 174.848 74.2897 174.258L66.915 170C65.8932 169.41 64.5866 169.761 63.9966 170.782L47.1385 199.981C46.5486 201.003 46.8987 202.31 47.9205 202.9Z" fill="#AC9062"/>
<path d="M43.3051 156.662V163.026C43.3051 163.462 43.4856 163.823 43.8015 164.004L91.0132 191.266C91.3291 191.446 91.7353 191.431 92.1115 191.206L97.618 188.016C98.611 187.444 98.8517 185.94 98.0242 185.473L45.3061 155.037C44.4786 154.556 43.3051 155.519 43.3051 156.662Z" fill="#AC9062"/>
<path opacity="0.39" d="M156.971 22.5044C159.423 30.2526 152.262 59.3951 149.87 63.1263C148.185 65.7592 76.931 177.018 75.1406 177.168L69.5438 173.949" fill="#AC9062"/>
<path d="M66.3843 171.692C65.1055 170.895 64.6241 169.3 65.2259 167.931C72.8086 150.975 123.932 52.2938 125.301 49.0892C127.031 45.0421 148.997 24.2648 156.956 22.5195C159.408 30.2678 152.247 59.4102 149.855 63.1414C148.17 65.7743 76.9159 177.033 75.1256 177.184L66.3843 171.707V171.692Z" fill="#DABD89"/>
<path opacity="0.39" d="M156.971 22.5044C159.423 30.2526 152.262 59.3951 149.87 63.1263C148.185 65.7592 76.931 177.018 75.1406 177.168L69.5438 173.949" fill="#AC9062"/>
<path d="M47.9205 202.9L55.2952 207.158C56.317 207.748 57.6236 207.397 58.2136 206.376L75.0717 177.177C75.6616 176.155 75.3115 174.848 74.2897 174.258L66.915 170C65.8932 169.41 64.5866 169.761 63.9966 170.782L47.1385 199.981C46.5486 201.003 46.8987 202.31 47.9205 202.9Z" fill="#AC9062"/>
<path d="M42.1617 155.654L41.7554 163.011C41.7254 163.523 41.9059 163.929 42.2369 164.109L91.7053 192.665C92.0363 192.861 92.4726 192.8 92.9089 192.53L99.0774 188.497C100.191 187.775 100.537 186.03 99.6642 185.534L44.4335 153.653C43.5759 153.156 42.2369 154.33 42.1617 155.654Z" fill="#AC9062"/>
<path d="M42.5074 153.406C43.0556 152.924 43.9643 152.513 44.8097 153.002L100.04 184.881H100.039C100.889 185.367 100.995 186.356 100.853 187.077C100.702 187.837 100.236 188.64 99.4879 189.126L93.32 193.159L93.3053 193.168C92.7494 193.513 91.9987 193.707 91.3291 193.315L41.8609 164.76V164.759C41.1984 164.387 40.9643 163.646 41.0043 162.966L41.4113 155.611C41.4619 154.722 41.9258 153.917 42.5074 153.406ZM44.056 154.303C44.0393 154.295 43.8501 154.228 43.5006 154.536C43.1796 154.818 42.9376 155.262 42.9129 155.696L42.5059 163.053V163.054C42.4966 163.213 42.5236 163.32 42.55 163.38C42.5734 163.434 42.5939 163.446 42.597 163.448L42.6132 163.457V163.458L92.0814 192.013L92.0872 192.018C92.0907 192.02 92.1128 192.033 92.1783 192.025C92.2503 192.016 92.3643 191.981 92.5119 191.89L98.6651 187.867L98.668 187.865C99.0324 187.629 99.2953 187.2 99.3777 186.784C99.4672 186.331 99.314 186.2 99.2925 186.188L99.288 186.185L44.0574 154.305L44.056 154.303Z" fill="#6C5E40"/>
</svg>
