<svg width="227" height="108" viewBox="0 0 227 108" fill="none" xmlns="http://www.w3.org/2000/svg">
<path d="M45.3195 11.2359L40.7558 19.1417C40.4563 19.6585 39.91 19.9757 39.3168 19.9757H25.0735C24.4333 19.9757 24.0339 19.2826 24.3511 18.7246L28.9148 10.8189C29.2144 10.302 29.7606 9.98486 30.3538 9.98486H44.5971C45.2373 9.98486 45.6367 10.6779 45.3195 11.2359Z" fill="url(#paint0_linear_432_3200)"/>
<path d="M45.3137 24.5572L40.7499 32.463C40.4504 32.9798 39.9042 33.297 39.3109 33.297H25.0677C24.4275 33.297 24.0281 32.6039 24.3452 32.0459L28.9089 24.1402C29.2085 23.6233 29.7547 23.3062 30.348 23.3062H44.5912C45.2314 23.3062 45.6308 23.9992 45.3137 24.5572Z" fill="url(#paint1_linear_432_3200)"/>
<path d="M71.5741 13.3211H63.9856C63.3454 13.3211 62.946 12.628 63.2631 12.0701L69.7592 0.834039C70.0588 0.31717 70.605 0 71.1982 0H78.7868C79.427 0 79.8264 0.693074 79.5093 1.25106L73.019 12.4871C72.7195 13.004 72.1732 13.3211 71.58 13.3211H71.5741Z" fill="url(#paint2_linear_432_3200)"/>
<path d="M84.8952 13.3211H77.3067C76.6665 13.3211 76.2671 12.628 76.5842 12.0701L83.0745 0.834039C83.374 0.31717 83.9202 0 84.5135 0H92.102C92.7423 0 93.1417 0.693074 92.8245 1.25106L86.3343 12.4871C86.0347 13.004 85.4885 13.3211 84.8952 13.3211Z" fill="url(#paint3_linear_432_3200)"/>
<path d="M44.2858 53.278H36.6972C36.057 53.278 35.6576 52.5849 35.9748 52.027L59.7684 10.8243C60.0679 10.3074 60.6142 9.99023 61.2074 9.99023H70.235L45.7248 52.444C45.4253 52.9608 44.879 53.278 44.2858 53.278Z" fill="url(#paint4_linear_432_3200)"/>
<path d="M178.278 86.3223L182.842 78.4166C183.141 77.8997 183.688 77.5825 184.281 77.5825H225.166C225.807 77.5825 226.206 78.2756 225.889 78.8336L221.325 86.7393C221.026 87.2562 220.479 87.5734 219.886 87.5734H179.001C178.36 87.5734 177.961 86.8803 178.278 86.3223Z" fill="url(#paint5_linear_432_3200)"/>
<path d="M51.6042 65.9295H44.0156C43.3754 65.9295 42.976 65.2365 43.2932 64.6785L49.7834 53.4424C50.083 52.9256 50.6292 52.6084 51.2224 52.6084H58.811C59.4512 52.6084 59.8506 53.3015 59.5334 53.8595L53.0432 65.0955C52.7437 65.6124 52.1974 65.9295 51.6042 65.9295Z" fill="url(#paint6_linear_432_3200)"/>
<path d="M64.9253 65.9295H57.3367C56.6965 65.9295 56.2971 65.2365 56.6143 64.6785L63.1045 53.4424C63.4041 52.9256 63.9503 52.6084 64.5435 52.6084H72.1321C72.7723 52.6084 73.1717 53.3015 72.8546 53.8595L66.3643 65.0955C66.0648 65.6124 65.5185 65.9295 64.9253 65.9295Z" fill="url(#paint7_linear_432_3200)"/>
<path d="M8.42214 105.887H0.833558C0.193346 105.887 -0.206053 105.194 0.111116 104.636L24.1397 63.0108C24.2865 62.7523 24.5625 62.5938 24.8621 62.5938H32.9264C33.5666 62.5938 33.966 63.2868 33.6489 63.8448L9.85527 105.053C9.55572 105.57 9.00949 105.887 8.41626 105.887H8.42214Z" fill="url(#paint8_linear_432_3200)"/>
<path d="M35.0585 105.887H27.4699C26.8297 105.887 26.4303 105.194 26.7475 104.636L44.7733 73.4185C45.0729 72.9016 45.6191 72.5845 46.2123 72.5845H53.8009C54.4411 72.5845 54.8405 73.2775 54.5233 73.8355L36.4975 105.053C36.198 105.57 35.6517 105.887 35.0585 105.887Z" fill="url(#paint9_linear_432_3200)"/>
<path d="M133.851 8.73979L138.174 1.24518C138.497 0.693074 138.098 0 137.457 0H129.869C129.276 0 128.723 0.31717 128.43 0.834039L123.625 9.1568C123.326 9.67367 122.779 9.99084 122.186 9.99084H100.284C99.6906 9.99084 99.1385 10.308 98.8448 10.8249L94.2811 18.7306C93.9581 19.2827 94.3634 19.9817 95.0036 19.9817H102.275C102.962 19.9817 103.356 20.7687 102.939 21.315L79.8499 51.9453C79.4388 52.4916 79.8264 53.2786 80.5136 53.2786H88.0023C88.5251 53.2786 89.0185 53.0319 89.3298 52.6149L113.675 20.3106C113.834 20.0992 114.081 19.9817 114.339 19.9817H115.931C116.571 19.9817 116.971 20.6748 116.653 21.2327L98.8683 52.0334C98.5453 52.5855 98.9506 53.2845 99.5908 53.2845H107.179C107.773 53.2845 108.325 52.9673 108.618 52.4505L126.885 20.8157C127.185 20.2989 127.731 19.9817 128.324 19.9817H135.877C136.471 19.9817 137.023 19.6645 137.316 19.1476L141.88 11.2419C142.203 10.6898 141.798 9.99084 141.158 9.99084H134.568C133.927 9.99084 133.528 9.29777 133.845 8.73979H133.851Z" fill="url(#paint10_linear_432_3200)"/>
<path d="M109.517 82.5754H96.6423C96.0021 82.5754 95.6027 81.8824 95.9198 81.3244L100.965 72.5846L106.011 63.8448C106.334 63.2927 105.928 62.5938 105.288 62.5938H74.3934C73.8002 62.5938 73.2481 62.9109 72.9544 63.4278L68.3907 71.3335C68.0677 71.8856 68.4729 72.5846 69.1131 72.5846H89.5412C90.1814 72.5846 90.5808 73.2777 90.2636 73.8357L72.4787 104.636C72.1556 105.188 72.5609 105.887 73.2011 105.887H80.7897C81.3829 105.887 81.935 105.57 82.2287 105.053L88.9597 93.4003C89.2593 92.8835 89.8055 92.5663 90.3987 92.5663H104.231C104.824 92.5663 105.376 92.2491 105.67 91.7322L110.234 83.8265C110.557 83.2744 110.151 82.5754 109.511 82.5754H109.517Z" fill="url(#paint11_linear_432_3200)"/>
<path d="M164.241 62.5996H135.231C134.638 62.5996 134.086 62.9168 133.792 63.4336L115.766 94.6514C115.443 95.2035 115.849 95.9024 116.489 95.9024H124.077C124.671 95.9024 125.223 95.5852 125.516 95.0684L138.015 73.4245C138.315 72.9076 138.861 72.5904 139.454 72.5904H153.698C154.338 72.5904 154.737 73.2835 154.42 73.8415L151.154 79.5036C150.861 80.0087 150.326 80.3259 149.745 80.3376L142.632 80.4786C142.039 80.4903 141.492 80.8192 141.205 81.342L137.54 87.9849C137.228 88.5488 137.645 89.2301 138.285 89.2184L144.153 89.1009C144.799 89.0891 145.216 89.7881 144.893 90.352L136.641 104.648C136.318 105.2 136.723 105.899 137.363 105.899H144.952C145.545 105.899 146.097 105.582 146.391 105.065L170.185 63.8565C170.508 63.3044 170.102 62.6055 169.462 62.6055H164.246L164.241 62.5996Z" fill="url(#paint12_linear_432_3200)"/>
<mask id="path-14-inside-1_432_3200" fill="white">
<path d="M165.241 64.5996L165.247 64.6055H170.462C171.103 64.6055 171.508 65.3044 171.185 65.8564L147.391 107.065C147.097 107.582 146.546 107.899 145.953 107.899H138.364C137.724 107.899 137.318 107.201 137.641 106.648L145.893 92.3516C146.216 91.7878 145.8 91.0891 145.154 91.1006L139.286 91.2188C138.646 91.2304 138.229 90.5491 138.54 89.9854L142.205 83.3418C142.492 82.8191 143.039 82.4903 143.632 82.4785L150.745 82.3379C151.326 82.3261 151.861 82.0089 152.155 81.5039L155.42 75.8418C155.738 75.2838 155.338 74.5908 154.698 74.5908H140.455C139.861 74.5908 139.315 74.9079 139.015 75.4248L126.517 97.0684C126.223 97.5852 125.671 97.9023 125.078 97.9023H117.489C116.849 97.902 116.444 97.2034 116.767 96.6514L134.792 65.4336C135.086 64.9167 135.639 64.5996 136.232 64.5996H165.241ZM33.9263 64.5938C34.5665 64.5938 34.9661 65.2867 34.6489 65.8447L10.856 107.054C10.5564 107.571 10.0097 107.888 9.41652 107.888H1.83351C1.19354 107.887 0.794803 107.195 1.11183 106.637L25.1402 65.0107C25.287 64.7524 25.5633 64.5938 25.8628 64.5938H33.9263ZM106.289 64.5938C106.929 64.5939 107.334 65.2927 107.011 65.8447L101.965 74.585L96.9204 83.3242C96.6033 83.8821 97.0022 84.5748 97.6421 84.5752H110.511C111.151 84.5752 111.557 85.2741 111.234 85.8262L106.67 93.7324C106.377 94.2493 105.824 94.5664 105.231 94.5664H91.3989C90.8058 94.5664 90.26 94.8836 89.9605 95.4004L83.229 107.054C82.9353 107.57 82.3827 107.888 81.7896 107.888H74.2017C73.5616 107.888 73.1562 107.189 73.479 106.637L91.2642 75.8359C91.5813 75.278 91.1817 74.585 90.5415 74.585H70.1138C69.4737 74.585 69.0684 73.886 69.3911 73.334L73.9546 65.4277C74.2483 64.9109 74.8008 64.5938 75.3941 64.5938H106.289ZM54.8013 74.584C55.4413 74.584 55.8406 75.2771 55.5239 75.835L37.4976 107.053C37.1981 107.57 36.6522 107.887 36.0591 107.887H28.4702C27.83 107.887 27.4304 107.194 27.7476 106.636L45.7739 75.418C46.0735 74.9014 46.6194 74.5841 47.2124 74.584H54.8013ZM226.167 79.583C226.807 79.583 227.206 80.276 226.889 80.834L222.326 88.7393C222.026 89.2561 221.479 89.5732 220.886 89.5732H180.001C179.361 89.5729 178.962 88.8801 179.279 88.3223L183.842 80.417C184.142 79.9003 184.688 79.5832 185.281 79.583H226.167ZM59.811 54.6084C60.4512 54.6084 60.8507 55.3014 60.5337 55.8594L54.0435 67.0957C53.744 67.6124 53.198 67.9295 52.605 67.9297H45.0161C44.3759 67.9297 43.9763 67.2367 44.2935 66.6787L50.7837 55.4424C51.0833 54.9256 51.63 54.6084 52.2232 54.6084H59.811ZM73.1323 54.6084C73.7724 54.6084 74.1719 55.3014 73.855 55.8594L67.3648 67.0957C67.0652 67.6126 66.5185 67.9297 65.9253 67.9297H58.3374C57.6972 67.9297 57.2976 67.2367 57.6148 66.6787L64.105 55.4424C64.4045 54.9258 64.9505 54.6085 65.5435 54.6084H73.1323ZM138.458 2C139.098 2 139.497 2.69302 139.174 3.24512L134.851 10.7402H134.845C134.529 11.2981 134.928 11.9912 135.568 11.9912H142.158C142.798 11.9912 143.203 12.6901 142.88 13.2422L138.317 21.1475C138.023 21.6643 137.471 21.9814 136.877 21.9814H129.325C128.732 21.9814 128.185 22.2987 127.885 22.8154L109.619 54.4502C109.325 54.9671 108.772 55.2842 108.179 55.2842H100.591C99.9511 55.2842 99.5456 54.5853 99.8687 54.0332L117.654 23.2324C117.971 22.6745 117.571 21.9814 116.931 21.9814H115.339C115.081 21.9815 114.834 22.0991 114.675 22.3105L90.3296 54.6152C90.0183 55.032 89.525 55.2783 89.0025 55.2783H81.5142C80.827 55.2783 80.439 54.4915 80.8501 53.9453L103.939 23.3154C104.356 22.7692 103.962 21.9814 103.275 21.9814H96.0034C95.3635 21.9811 94.9588 21.2824 95.2818 20.7305L99.8452 12.8252C100.139 12.3085 100.691 11.9914 101.284 11.9912H123.186C123.779 11.9912 124.326 11.6739 124.626 11.1572L129.43 2.83398C129.724 2.31729 130.276 2.00014 130.869 2H138.458ZM79.7866 2C80.4268 2 80.8265 2.69299 80.5093 3.25098L74.0191 14.4873C73.7195 15.0039 73.1736 15.3212 72.5806 15.3213H69.312L46.7251 54.4443C46.4255 54.9611 45.8788 55.2783 45.2857 55.2783H37.6978C37.0576 55.2783 36.6581 54.5853 36.9751 54.0273L60.7691 12.8242C61.0686 12.3076 61.6145 11.9903 62.2075 11.9902H65.4653L70.7593 2.83398C71.0588 2.31712 71.6055 2 72.1987 2H79.7866ZM45.5913 25.3057C46.2314 25.3057 46.6309 25.9987 46.314 26.5566L41.7505 34.4629C41.451 34.9797 40.9043 35.2969 40.311 35.2969H26.0679C25.4278 35.2968 25.0284 34.6038 25.3452 34.0459L29.9097 26.1396C30.2093 25.6231 30.7551 25.3057 31.3482 25.3057H45.5913ZM45.5972 11.9844C46.2373 11.9844 46.6367 12.6774 46.3198 13.2354L41.7564 21.1416C41.4568 21.6585 40.9101 21.9756 40.3169 21.9756H26.0737C25.4337 21.9755 25.0342 21.2825 25.3511 20.7246L29.9155 12.8184C30.2151 12.3018 30.761 11.9844 31.354 11.9844H45.5972ZM93.1021 2C93.7423 2 94.1419 2.69299 93.8247 3.25098L87.3345 14.4873C87.035 15.0039 86.489 15.3211 85.896 15.3213H78.3071C77.667 15.3213 77.2676 14.6282 77.5845 14.0703L84.0747 2.83398C84.3743 2.31712 84.921 2 85.5142 2H93.1021Z"/>
</mask>
<path fill-rule="evenodd" clip-rule="evenodd" d="M165.241 64.5996L166.655 63.1854L166.069 62.5996H165.241V64.5996ZM165.247 64.6055L163.832 66.0197L164.418 66.6055H165.247V64.6055ZM170.462 64.6055L170.462 62.6055H170.462V64.6055ZM171.185 65.8564L169.459 64.8468L169.453 64.8564L171.185 65.8564ZM147.391 107.065L145.659 106.065L145.652 106.077L147.391 107.065ZM145.953 107.899V109.899H145.953L145.953 107.899ZM137.641 106.648L139.368 107.658L139.373 107.648L137.641 106.648ZM145.893 92.3516L147.625 93.3514L147.629 93.3455L145.893 92.3516ZM145.154 91.1006L145.118 89.1009L145.114 89.101L145.154 91.1006ZM139.286 91.2188L139.322 93.2184L139.326 93.2183L139.286 91.2188ZM138.54 89.9854L136.788 89.0193L136.788 89.0197L138.54 89.9854ZM142.205 83.3418L143.956 84.3079L143.957 84.3064L142.205 83.3418ZM143.632 82.4785L143.593 80.4789H143.593L143.632 82.4785ZM150.745 82.3379L150.784 84.3375L150.785 84.3375L150.745 82.3379ZM152.155 81.5039L153.884 82.5094L153.887 82.5031L152.155 81.5039ZM155.42 75.8418L157.153 76.841L157.159 76.8301L155.42 75.8418ZM140.455 74.5908V72.5908H140.455L140.455 74.5908ZM139.015 75.4248L137.285 74.422L137.283 74.4247L139.015 75.4248ZM126.517 97.0684L124.785 96.0682L124.778 96.0803L126.517 97.0684ZM117.489 97.9023L117.488 99.9023H117.489V97.9023ZM116.767 96.6514L118.493 97.6614L118.499 97.6514L116.767 96.6514ZM134.792 65.4336L136.525 66.4337L136.531 66.4216L134.792 65.4336ZM34.6489 65.8447L36.381 66.8448L36.3877 66.8331L34.6489 65.8447ZM10.856 107.054L12.5863 108.057L12.588 108.054L10.856 107.054ZM1.83351 107.888L1.8327 109.888H1.83351V107.888ZM1.11183 106.637L-0.620339 105.637L-0.627003 105.649L1.11183 106.637ZM25.1402 65.0107L26.8723 66.0106L26.8789 65.9991L25.1402 65.0107ZM106.289 64.5938L106.289 62.5938H106.289V64.5938ZM107.011 65.8447L105.285 64.8352L105.279 64.8448L107.011 65.8447ZM101.965 74.585L100.233 73.585L100.233 73.5851L101.965 74.585ZM96.9204 83.3242L95.1883 82.3243L95.1817 82.3359L96.9204 83.3242ZM97.6421 84.5752L97.641 86.5752H97.6421V84.5752ZM111.234 85.8262L109.507 84.8167L109.502 84.8264L111.234 85.8262ZM106.67 93.7324L104.938 92.7326L104.932 92.7444L106.67 93.7324ZM91.3989 94.5664V92.5664H91.3988L91.3989 94.5664ZM89.9605 95.4004L88.2301 94.3974L88.2286 94.4L89.9605 95.4004ZM83.229 107.054L81.4971 106.053L81.4903 106.065L83.229 107.054ZM73.479 106.637L75.2056 107.646L75.211 107.637L73.479 106.637ZM91.2642 75.8359L92.9962 76.8361L93.0029 76.8243L91.2642 75.8359ZM90.5415 74.585V72.585V72.585V74.585ZM69.3911 73.334L71.1178 74.3434L71.1233 74.3338L69.3911 73.334ZM73.9546 65.4277L75.6868 66.4276L75.6935 66.4158L73.9546 65.4277ZM54.8013 74.584L54.8015 72.584H54.8013V74.584ZM55.5239 75.835L57.2559 76.8351L57.2596 76.8287L57.2632 76.8223L55.5239 75.835ZM37.4976 107.053L39.228 108.056L39.2296 108.053L37.4976 107.053ZM36.0591 107.887V109.887H36.0594L36.0591 107.887ZM28.4702 107.887L28.4702 109.887H28.4702V107.887ZM27.7476 106.636L26.0156 105.636L26.0088 105.647L27.7476 106.636ZM45.7739 75.418L44.0438 74.4146L44.042 74.4179L45.7739 75.418ZM47.2124 74.584V72.584H47.2122L47.2124 74.584ZM226.889 80.834L228.621 81.8339L228.628 81.8223L226.889 80.834ZM222.326 88.7393L224.056 89.7421L224.058 89.7392L222.326 88.7393ZM180 89.5732L179.999 91.5732H180V89.5732ZM179.279 88.3223L177.547 87.3223L177.54 87.3339L179.279 88.3223ZM183.842 80.417L182.112 79.4141L182.11 79.4171L183.842 80.417ZM185.281 79.583V77.583H185.28L185.281 79.583ZM60.5337 55.8594L62.2656 56.8597L62.2692 56.8535L62.2727 56.8473L60.5337 55.8594ZM54.0435 67.0957L55.7739 68.0986L55.7753 68.096L54.0435 67.0957ZM52.605 67.9297V69.9297H52.6056L52.605 67.9297ZM44.2935 66.6787L42.5616 65.6783L42.5547 65.6904L44.2935 66.6787ZM50.7837 55.4424L49.0534 54.4393L49.0519 54.442L50.7837 55.4424ZM73.855 55.8594L75.5869 56.8597L75.5905 56.8534L75.5941 56.8471L73.855 55.8594ZM67.3648 67.0957L69.0952 68.0985L69.0966 68.096L67.3648 67.0957ZM57.6148 66.6787L55.8829 65.6783L55.876 65.6904L57.6148 66.6787ZM64.105 55.4424L62.3748 54.4392L62.3731 54.442L64.105 55.4424ZM65.5435 54.6084V52.6084H65.543L65.5435 54.6084ZM139.174 3.24512L137.448 2.23532L137.442 2.24582L139.174 3.24512ZM134.851 10.7402V12.7402H136.006L136.584 11.7395L134.851 10.7402ZM134.845 10.7402V8.74023H133.681L133.106 9.75284L134.845 10.7402ZM142.88 13.2422L141.154 12.2321L141.148 12.2423L142.88 13.2422ZM138.317 21.1475L136.585 20.1475L136.578 20.1594L138.317 21.1475ZM127.885 22.8154L126.155 21.8123L126.153 21.8153L127.885 22.8154ZM109.619 54.4502L107.887 53.4501L107.88 53.4622L109.619 54.4502ZM99.8687 54.0332L101.595 55.0432L101.601 55.0333L99.8687 54.0332ZM117.654 23.2324L119.386 24.2325L119.389 24.2263L119.393 24.22L117.654 23.2324ZM115.339 21.9814V19.9814H115.339L115.339 21.9814ZM114.675 22.3105L116.273 23.5143L116.275 23.5105L114.675 22.3105ZM90.3296 54.6152L88.7324 53.4115L88.7273 53.4183L90.3296 54.6152ZM80.8501 53.9453L79.253 52.7414L79.2521 52.7426L80.8501 53.9453ZM103.939 23.3154L102.349 22.1018L102.342 22.1115L103.939 23.3154ZM96.0034 21.9814L96.0024 23.9814H96.0034V21.9814ZM95.2818 20.7305L97.008 21.7405L97.0139 21.7304L95.2818 20.7305ZM99.8452 12.8252L101.577 13.8251L101.584 13.8132L99.8452 12.8252ZM101.284 11.9912V9.99121H101.283L101.284 11.9912ZM124.626 11.1572L126.356 12.1604L126.358 12.1571L124.626 11.1572ZM129.43 2.83398L131.162 3.83389L131.169 3.82213L129.43 2.83398ZM130.869 2V0H130.868L130.869 2ZM80.5093 3.25098L82.2412 4.25134L82.248 4.23931L80.5093 3.25098ZM74.0191 14.4873L75.7492 15.4906L75.7509 15.4876L74.0191 14.4873ZM72.5806 15.3213V17.3213H72.5809L72.5806 15.3213ZM69.312 15.3213V13.3213H68.1573L67.58 14.3213L69.312 15.3213ZM46.7251 54.4443L48.4554 55.4473L48.4572 55.4443L46.7251 54.4443ZM36.9751 54.0273L35.2431 53.0272L35.2362 53.0393L36.9751 54.0273ZM60.7691 12.8242L59.0389 11.821L59.0371 11.8241L60.7691 12.8242ZM62.2075 11.9902V9.99023H62.2074L62.2075 11.9902ZM65.4653 11.9902V13.9902H66.6192L67.1968 12.9913L65.4653 11.9902ZM70.7593 2.83398L69.0289 1.83114L69.0279 1.83291L70.7593 2.83398ZM46.314 26.5566L48.0462 27.5565L48.053 27.5444L46.314 26.5566ZM41.7505 34.4629L43.4809 35.4658L43.4827 35.4627L41.7505 34.4629ZM26.0679 35.2969L26.0677 37.2969H26.0679V35.2969ZM25.3452 34.0459L23.6131 33.0459L23.6061 33.0582L25.3452 34.0459ZM29.9097 26.1396L28.1796 25.1363L28.1776 25.1397L29.9097 26.1396ZM31.3482 25.3057V23.3057H31.348L31.3482 25.3057ZM46.3198 13.2354L48.052 14.2352L48.0589 14.2231L46.3198 13.2354ZM41.7564 21.1416L43.4868 22.1445L43.4885 22.1414L41.7564 21.1416ZM26.0737 21.9756L26.0735 23.9756H26.0737V21.9756ZM25.3511 20.7246L23.619 19.7246L23.612 19.7369L25.3511 20.7246ZM29.9155 12.8184L28.1854 11.815L28.1835 11.8184L29.9155 12.8184ZM31.354 11.9844V9.98438H31.3539L31.354 11.9844ZM93.8247 3.25098L95.5566 4.25134L95.5635 4.23931L93.8247 3.25098ZM87.3345 14.4873L89.0647 15.4905L89.0663 15.4876L87.3345 14.4873ZM85.896 15.3213V17.3213H85.8966L85.896 15.3213ZM77.5845 14.0703L75.8526 13.07L75.849 13.0763L75.8454 13.0826L77.5845 14.0703ZM84.0747 2.83398L82.3443 1.83114L82.3429 1.83364L84.0747 2.83398ZM165.241 64.5996L163.827 66.0138L163.832 66.0197L165.247 64.6055L166.661 63.1913L166.655 63.1854L165.241 64.5996ZM165.247 64.6055V66.6055H170.462V64.6055V62.6055H165.247V64.6055ZM170.462 64.6055L170.462 66.6055C169.578 66.6054 168.992 65.645 169.459 64.8468L171.185 65.8564L172.912 66.8661C174.024 64.9637 172.627 62.6055 170.462 62.6055L170.462 64.6055ZM171.185 65.8564L169.453 64.8564L145.659 106.065L147.391 107.065L149.123 108.065L172.917 66.8565L171.185 65.8564ZM147.391 107.065L145.652 106.077C145.718 105.961 145.834 105.899 145.952 105.899L145.953 107.899L145.953 109.899C147.257 109.899 148.477 109.203 149.13 108.054L147.391 107.065ZM145.953 107.899V105.899H138.364V107.899V109.899H145.953V107.899ZM138.364 107.899V105.899C139.249 105.899 139.834 106.86 139.368 107.658L137.641 106.648L135.914 105.639C134.803 107.541 136.198 109.899 138.364 109.899V107.899ZM137.641 106.648L139.373 107.648L147.625 93.3513L145.893 92.3516L144.161 91.3518L135.909 105.649L137.641 106.648ZM145.893 92.3516L147.629 93.3455C148.725 91.4309 147.312 89.062 145.118 89.1009L145.154 91.1006L145.189 93.1003C144.287 93.1163 143.707 92.1448 144.158 91.3576L145.893 92.3516ZM145.154 91.1006L145.114 89.101L139.245 89.2192L139.286 91.2188L139.326 93.2183L145.194 93.1002L145.154 91.1006ZM139.286 91.2188L139.249 89.2191C140.13 89.2031 140.731 90.1523 140.291 90.951L138.54 89.9854L136.788 89.0197C135.726 90.9459 137.162 93.2577 139.322 93.2184L139.286 91.2188ZM138.54 89.9854L140.291 90.9514L143.956 84.3079L142.205 83.3418L140.453 82.3757L136.788 89.0193L138.54 89.9854ZM142.205 83.3418L143.957 84.3064C143.899 84.4112 143.792 84.4757 143.672 84.4781L143.632 82.4785L143.593 80.4789C142.286 80.5048 141.086 81.2269 140.453 82.3772L142.205 83.3418ZM143.632 82.4785L143.672 84.4781L150.784 84.3375L150.745 82.3379L150.705 80.3383L143.593 80.4789L143.632 82.4785ZM150.745 82.3379L150.785 84.3375C152.071 84.3115 153.243 83.6117 153.884 82.5094L152.155 81.5039L150.426 80.4984C150.48 80.4062 150.581 80.3408 150.704 80.3383L150.745 82.3379ZM152.155 81.5039L153.887 82.5031L157.153 76.841L155.42 75.8418L153.688 74.8426L150.422 80.5047L152.155 81.5039ZM155.42 75.8418L157.159 76.8301C158.225 74.9545 156.89 72.5908 154.698 72.5908V74.5908V76.5908C153.786 76.5908 153.25 75.6131 153.682 74.8535L155.42 75.8418ZM154.698 74.5908V72.5908H140.455V74.5908V76.5908H154.698V74.5908ZM140.455 74.5908L140.455 72.5908C139.14 72.5908 137.938 73.2945 137.285 74.422L139.015 75.4248L140.746 76.4277C140.691 76.5214 140.582 76.5908 140.455 76.5908L140.455 74.5908ZM139.015 75.4248L137.283 74.4247L124.785 96.0682L126.517 97.0684L128.249 98.0685L140.747 76.4249L139.015 75.4248ZM126.517 97.0684L124.778 96.0803C124.845 95.9634 124.961 95.9023 125.078 95.9023V97.9023V99.9023C126.381 99.9023 127.602 99.207 128.256 98.0564L126.517 97.0684ZM125.078 97.9023V95.9023H117.489V97.9023V99.9023H125.078V97.9023ZM117.489 97.9023L117.49 95.9023C118.376 95.9028 118.959 96.8647 118.493 97.6614L116.767 96.6514L115.041 95.6413C113.929 97.542 115.322 99.9013 117.488 99.9023L117.489 97.9023ZM116.767 96.6514L118.499 97.6514L136.524 66.4337L134.792 65.4336L133.06 64.4335L115.035 95.6513L116.767 96.6514ZM134.792 65.4336L136.531 66.4216C136.465 66.5385 136.349 66.5996 136.232 66.5996V64.5996V62.5996C134.929 62.5996 133.707 63.295 133.054 64.4456L134.792 65.4336ZM136.232 64.5996V66.5996H165.241V64.5996V62.5996H136.232V64.5996ZM33.9263 64.5938V66.5938C33.0149 66.5938 32.4784 65.616 32.9102 64.8564L34.6489 65.8447L36.3877 66.8331C37.4538 64.9574 36.1181 62.5938 33.9263 62.5938V64.5938ZM34.6489 65.8447L32.9169 64.8447L9.12394 106.054L10.856 107.054L12.588 108.054L36.381 66.8448L34.6489 65.8447ZM10.856 107.054L9.12561 106.051C9.17987 105.957 9.28867 105.888 9.41652 105.888V107.888V109.888C10.7308 109.888 11.933 109.184 12.5863 108.057L10.856 107.054ZM9.41652 107.888V105.888H1.83351V107.888V109.888H9.41652V107.888ZM1.83351 107.888L1.83432 105.888C2.74831 105.888 3.28086 106.868 2.85066 107.625L1.11183 106.637L-0.627003 105.649C-1.69126 107.521 -0.361229 109.887 1.8327 109.888L1.83351 107.888ZM1.11183 106.637L2.84396 107.637L26.8723 66.0106L25.1402 65.0107L23.408 64.0109L-0.6203 105.637L1.11183 106.637ZM25.1402 65.0107L26.8789 65.9991C26.6639 66.3773 26.2696 66.5938 25.8628 66.5938V64.5938V62.5938C24.857 62.5938 23.9101 63.1274 23.4014 64.0224L25.1402 65.0107ZM25.8628 64.5938V66.5938H33.9263V64.5938V62.5938H25.8628V64.5938ZM106.289 64.5938L106.288 66.5938C105.404 66.5936 104.818 65.6337 105.285 64.8352L107.011 65.8447L108.738 66.8542C109.85 64.9517 108.453 62.5942 106.289 62.5938L106.289 64.5938ZM107.011 65.8447L105.279 64.8448L100.233 73.585L101.965 74.585L103.697 75.5849L108.743 66.8447L107.011 65.8447ZM101.965 74.585L100.233 73.5851L95.1883 82.3243L96.9204 83.3242L98.6525 84.3241L103.697 75.5849L101.965 74.585ZM96.9204 83.3242L95.1817 82.3359C94.1168 84.2093 95.4481 86.574 97.641 86.5752L97.6421 84.5752L97.6432 82.5752C98.5563 82.5757 99.0899 83.5548 98.6592 84.3126L96.9204 83.3242ZM97.6421 84.5752V86.5752H110.511V84.5752V82.5752H97.6421V84.5752ZM110.511 84.5752V86.5752C109.626 86.5752 109.041 85.6145 109.507 84.8167L111.234 85.8262L112.96 86.8356C114.072 84.9337 112.677 82.5752 110.511 82.5752V84.5752ZM111.234 85.8262L109.502 84.8264L104.938 92.7326L106.67 93.7324L108.403 94.7322L112.966 86.826L111.234 85.8262ZM106.67 93.7324L104.932 92.7444C104.998 92.6275 105.114 92.5664 105.231 92.5664V94.5664V96.5664C106.534 96.5664 107.756 95.871 108.409 94.7205L106.67 93.7324ZM105.231 94.5664V92.5664H91.3989V94.5664V96.5664H105.231V94.5664ZM91.3989 94.5664L91.3988 92.5664C90.0834 92.5665 88.8829 93.2714 88.2301 94.3974L89.9605 95.4004L91.6908 96.4034C91.6372 96.4959 91.5282 96.5664 91.3991 96.5664L91.3989 94.5664ZM89.9605 95.4004L88.2286 94.4L81.4972 106.053L83.229 107.054L84.9609 108.054L91.6923 96.4008L89.9605 95.4004ZM83.229 107.054L81.4903 106.065C81.5565 105.949 81.6724 105.888 81.7896 105.888V107.888V109.888C83.0929 109.888 84.3141 109.192 84.9678 108.042L83.229 107.054ZM81.7896 107.888V105.888H74.2017V107.888V109.888H81.7896V107.888ZM74.2017 107.888V105.888C75.0868 105.888 75.672 106.848 75.2056 107.646L73.479 106.637L71.7525 105.627C70.6405 107.529 72.0363 109.888 74.2017 109.888V107.888ZM73.479 106.637L75.211 107.637L92.9962 76.836L91.2642 75.8359L89.5322 74.8358L71.747 105.637L73.479 106.637ZM91.2642 75.8359L93.0029 76.8243C94.0691 74.9487 92.7333 72.585 90.5415 72.585V74.585V76.585C89.6301 76.585 89.0936 75.6073 89.5254 74.8476L91.2642 75.8359ZM90.5415 74.585V72.585H70.1138V74.585V76.585H90.5415V74.585ZM70.1138 74.585V72.585C70.9991 72.585 71.584 73.5457 71.1177 74.3434L69.3911 73.334L67.6645 72.3246C66.5527 74.2264 67.9483 76.585 70.1138 76.585V74.585ZM69.3911 73.334L71.1233 74.3338L75.6868 66.4275L73.9546 65.4277L72.2224 64.4279L67.659 72.3342L69.3911 73.334ZM73.9546 65.4277L75.6935 66.4158C75.6271 66.5326 75.5108 66.5938 75.3941 66.5938V64.5938V62.5938C74.0909 62.5938 72.8695 63.2891 72.2157 64.4397L73.9546 65.4277ZM75.3941 64.5938V66.5938H106.289V64.5938V62.5938H75.3941V64.5938ZM54.8013 74.584L54.8011 76.584C53.8883 76.5839 53.3543 75.6057 53.7847 74.8476L55.5239 75.835L57.2632 76.8223C58.327 74.9484 56.9943 72.5842 54.8015 72.584L54.8013 74.584ZM55.5239 75.835L53.792 74.8348L35.7656 106.053L37.4976 107.053L39.2296 108.053L57.2559 76.8351L55.5239 75.835ZM37.4976 107.053L35.7672 106.05C35.821 105.957 35.9301 105.887 36.0588 105.887L36.0591 107.887L36.0594 109.887C37.3744 109.887 38.5752 109.182 39.228 108.056L37.4976 107.053ZM36.0591 107.887V105.887H28.4702V107.887V109.887H36.0591V107.887ZM28.4702 107.887L28.4703 105.887C29.3816 105.887 29.9181 106.864 29.4863 107.624L27.7476 106.636L26.0088 105.647C24.9427 107.523 26.2785 109.887 28.4702 109.887L28.4702 107.887ZM27.7476 106.636L29.4796 107.636L47.5059 76.4181L45.7739 75.418L44.042 74.4179L26.0156 105.636L27.7476 106.636ZM45.7739 75.418L47.5041 76.4213C47.4506 76.5135 47.342 76.584 47.2127 76.584L47.2124 74.584L47.2122 72.584C45.8968 72.5842 44.6964 73.2893 44.0438 74.4146L45.7739 75.418ZM47.2124 74.584V76.584H54.8013V74.584V72.584H47.2124V74.584ZM226.167 79.583V81.583C225.255 81.583 224.719 80.6053 225.15 79.8456L226.889 80.834L228.628 81.8223C229.694 79.9467 228.358 77.583 226.167 77.583V79.583ZM226.889 80.834L225.157 79.8341L220.594 87.7394L222.326 88.7393L224.058 89.7392L228.621 81.8339L226.889 80.834ZM222.326 88.7393L220.595 87.7364C220.65 87.6427 220.758 87.5732 220.886 87.5732V89.5732V91.5732C222.2 91.5732 223.403 90.8695 224.056 89.7421L222.326 88.7393ZM220.886 89.5732V87.5732H180V89.5732V91.5732H220.886V89.5732ZM180 89.5732L180.002 87.5732C180.915 87.5737 181.448 88.5529 181.018 89.3106L179.279 88.3223L177.54 87.3339C176.475 89.2073 177.806 91.5721 179.999 91.5732L180 89.5732ZM179.279 88.3223L181.011 89.3222L185.574 81.4169L183.842 80.417L182.11 79.4171L177.547 87.3224L179.279 88.3223ZM183.842 80.417L185.573 81.4198C185.519 81.5129 185.41 81.583 185.281 81.583L185.281 79.583L185.28 77.583C183.966 77.5834 182.765 78.2876 182.112 79.4141L183.842 80.417ZM185.281 79.583V81.583H226.167V79.583V77.583H185.281V79.583ZM59.8111 54.6084V56.6084C58.8988 56.6084 58.3637 55.6303 58.7947 54.8715L60.5337 55.8594L62.2727 56.8473C63.3377 54.9726 62.0036 52.6084 59.8111 52.6084V54.6084ZM60.5337 55.8594L58.8019 54.859L52.3116 66.0954L54.0435 67.0957L55.7753 68.096L62.2656 56.8597L60.5337 55.8594ZM54.0435 67.0957L52.3131 66.0928C52.367 65.9998 52.476 65.9297 52.6044 65.9297L52.605 67.9297L52.6056 69.9297C53.9201 69.9293 55.121 69.2251 55.7739 68.0986L54.0435 67.0957ZM52.605 67.9297V65.9297H45.0161V67.9297V69.9297H52.605V67.9297ZM45.0161 67.9297V65.9297C45.9277 65.9297 46.4639 66.9075 46.0322 67.667L44.2935 66.6787L42.5547 65.6904C41.4887 67.5659 42.8242 69.9297 45.0161 69.9297V67.9297ZM44.2935 66.6787L46.0253 67.6791L52.5156 56.4427L50.7837 55.4424L49.0519 54.442L42.5616 65.6784L44.2935 66.6787ZM50.7837 55.4424L52.514 56.4455C52.4598 56.5389 52.3512 56.6084 52.2232 56.6084V54.6084V52.6084C50.9088 52.6084 49.7067 53.3124 49.0534 54.4393L50.7837 55.4424ZM52.2232 54.6084V56.6084H59.8111V54.6084V52.6084H52.2232V54.6084ZM73.1323 54.6084V56.6084C72.2198 56.6084 71.6851 55.6302 72.1159 54.8717L73.855 55.8594L75.5941 56.8471C76.6586 54.9727 75.3251 52.6084 73.1323 52.6084V54.6084ZM73.855 55.8594L72.1231 54.859L65.6329 66.0954L67.3648 67.0957L69.0966 68.096L75.5869 56.8597L73.855 55.8594ZM67.3648 67.0957L65.6344 66.0929C65.6887 65.9992 65.7975 65.9297 65.9253 65.9297V67.9297V69.9297C67.2395 69.9297 68.4418 69.226 69.0952 68.0985L67.3648 67.0957ZM65.9253 67.9297V65.9297H58.3374V67.9297V69.9297H65.9253V67.9297ZM58.3374 67.9297V65.9297C59.2488 65.9297 59.7853 66.9074 59.3535 67.667L57.6148 66.6787L55.876 65.6904C54.8099 67.566 56.1456 69.9297 58.3374 69.9297V67.9297ZM57.6148 66.6787L59.3466 67.6791L65.8369 56.4427L64.105 55.4424L62.3731 54.442L55.8829 65.6784L57.6148 66.6787ZM64.105 55.4424L65.8352 56.4455C65.7815 56.5382 65.6728 56.6084 65.5439 56.6084L65.5435 54.6084L65.543 52.6084C64.2282 52.6087 63.0275 53.3134 62.3748 54.4392L64.105 55.4424ZM65.5435 54.6084V56.6084H73.1323V54.6084V52.6084H65.5435V54.6084ZM138.458 2V4C137.563 4 136.986 3.0249 137.448 2.23534L139.174 3.24512L140.901 4.25489C142.008 2.36115 140.633 0 138.458 0V2ZM139.174 3.24512L137.442 2.24582L133.119 9.74094L134.851 10.7402L136.584 11.7395L140.907 4.24441L139.174 3.24512ZM134.851 10.7402V8.74023H134.845V10.7402V12.7402H134.851V10.7402ZM134.845 10.7402L133.106 9.75284C132.042 11.6266 133.375 13.9912 135.568 13.9912V11.9912V9.99121C136.481 9.99121 137.015 10.9697 136.584 11.7276L134.845 10.7402ZM135.568 11.9912V13.9912H142.158V11.9912V9.99121H135.568V11.9912ZM142.158 11.9912V13.9912C141.274 13.9912 140.687 13.031 141.154 12.2322L142.88 13.2422L144.607 14.2522C145.72 12.3491 144.322 9.99121 142.158 9.99121V11.9912ZM142.88 13.2422L141.148 12.2423L136.585 20.1476L138.317 21.1475L140.049 22.1474L144.612 14.2421L142.88 13.2422ZM138.317 21.1475L136.578 20.1594C136.644 20.0426 136.761 19.9814 136.877 19.9814V21.9814V23.9814C138.181 23.9814 139.402 23.2861 140.056 22.1355L138.317 21.1475ZM136.877 21.9814V19.9814H129.325V21.9814V23.9814H136.877V21.9814ZM129.325 21.9814V19.9814C128.01 19.9814 126.808 20.6854 126.155 21.8123L127.885 22.8154L129.616 23.8185C129.561 23.9119 129.453 23.9814 129.325 23.9814V21.9814ZM127.885 22.8154L126.153 21.8153L107.887 53.4501L109.619 54.4502L111.351 55.4503L129.617 23.8155L127.885 22.8154ZM109.619 54.4502L107.88 53.4622C107.946 53.3453 108.062 53.2842 108.179 53.2842V55.2842V57.2842C109.482 57.2842 110.704 56.5888 111.358 55.4382L109.619 54.4502ZM108.179 55.2842V53.2842H100.591V55.2842V57.2842H108.179V55.2842ZM100.591 55.2842V53.2842C101.475 53.2842 102.062 54.2444 101.595 55.0432L99.8687 54.0332L98.1424 53.0232C97.0289 54.9263 98.4269 57.2842 100.591 57.2842V55.2842ZM99.8687 54.0332L101.601 55.0333L119.386 24.2325L117.654 23.2324L115.922 22.2323L98.1367 53.0331L99.8687 54.0332ZM117.654 23.2324L119.393 24.22C120.457 22.3459 119.124 19.9814 116.931 19.9814V21.9814V23.9814C116.018 23.9814 115.484 23.0031 115.915 22.2448L117.654 23.2324ZM116.931 21.9814V19.9814H115.339V21.9814V23.9814H116.931V21.9814ZM115.339 21.9814L115.339 19.9814C114.475 19.9816 113.625 20.377 113.075 21.1105L114.675 22.3105L116.275 23.5105C116.042 23.8212 115.687 23.9814 115.34 23.9814L115.339 21.9814ZM114.675 22.3105L113.078 21.1068L88.7324 53.4115L90.3296 54.6152L91.9268 55.8189L116.273 23.5143L114.675 22.3105ZM90.3296 54.6152L88.7273 53.4183C88.7959 53.3265 88.8981 53.2783 89.0025 53.2783V55.2783V57.2783C90.152 57.2783 91.2407 56.7375 91.9319 55.8121L90.3296 54.6152ZM89.0025 55.2783V53.2783H81.5142V55.2783V57.2783H89.0025V55.2783ZM81.5142 55.2783V53.2783C82.4894 53.2783 83.0213 54.3864 82.4481 55.148L80.8501 53.9453L79.2521 52.7426C77.8567 54.5967 79.1646 57.2783 81.5142 57.2783V55.2783ZM80.8501 53.9453L82.4472 55.1492L105.536 24.5193L103.939 23.3154L102.342 22.1115L79.253 52.7414L80.8501 53.9453ZM103.939 23.3154L105.529 24.5291C106.962 22.6514 105.599 19.9814 103.275 19.9814V21.9814V23.9814C102.325 23.9814 101.75 22.8869 102.349 22.1018L103.939 23.3154ZM103.275 21.9814V19.9814H96.0034V21.9814V23.9814H103.275V21.9814ZM96.0034 21.9814L96.0045 19.9814C96.8903 19.9819 97.4742 20.9437 97.008 21.7405L95.2818 20.7305L93.5555 19.7204C92.4434 21.6212 93.8366 23.9803 96.0024 23.9814L96.0034 21.9814ZM95.2818 20.7305L97.0139 21.7304L101.577 13.8251L99.8452 12.8252L98.1131 11.8253L93.5496 19.7306L95.2818 20.7305ZM99.8452 12.8252L101.584 13.8132C101.518 13.9295 101.402 13.9912 101.284 13.9912L101.284 11.9912L101.283 9.99121C99.9797 9.99158 98.7596 10.6874 98.1063 11.8372L99.8452 12.8252ZM101.284 11.9912V13.9912H123.186V11.9912V9.99121H101.284V11.9912ZM123.186 11.9912V13.9912C124.5 13.9912 125.702 13.2871 126.356 12.1604L124.626 11.1572L122.895 10.154C122.949 10.0608 123.058 9.99121 123.186 9.99121V11.9912ZM124.626 11.1572L126.358 12.1571L131.162 3.83387L129.43 2.83398L127.698 1.8341L122.893 10.1573L124.626 11.1572ZM129.43 2.83398L131.169 3.82213C131.103 3.93815 130.987 3.99997 130.869 4L130.869 2L130.868 0C129.564 0.00030005 128.345 0.696426 127.691 1.84584L129.43 2.83398ZM130.869 2V4H138.458V2V0H130.869V2ZM79.7866 2V4C78.8752 4 78.3388 3.02229 78.7706 2.26264L80.5093 3.25098L82.248 4.23931C83.3142 2.36369 81.9785 0 79.7866 0V2ZM80.5093 3.25098L78.7774 2.25064L72.2872 13.487L74.0191 14.4873L75.7509 15.4876L82.2411 4.25132L80.5093 3.25098ZM74.0191 14.4873L72.2889 13.484C72.3424 13.3917 72.4511 13.3213 72.5803 13.3213L72.5806 15.3213L72.5809 17.3213C73.8961 17.3211 75.0966 16.6161 75.7492 15.4906L74.0191 14.4873ZM72.5806 15.3213V13.3213H69.312V15.3213V17.3213H72.5806V15.3213ZM69.312 15.3213L67.58 14.3213L44.993 53.4444L46.7251 54.4443L48.4572 55.4443L71.0441 16.3213L69.312 15.3213ZM46.7251 54.4443L44.9948 53.4413C45.049 53.3478 45.1577 53.2783 45.2857 53.2783V55.2783V57.2783C46.6 57.2783 47.8021 56.5744 48.4554 55.4473L46.7251 54.4443ZM45.2857 55.2783V53.2783H37.6978V55.2783V57.2783H45.2857V55.2783ZM37.6978 55.2783V53.2783C38.6097 53.2783 39.1453 54.2563 38.714 55.0154L36.9751 54.0273L35.2362 53.0393C34.1708 54.9143 35.5055 57.2783 37.6978 57.2783V55.2783ZM36.9751 54.0273L38.7071 55.0275L62.501 13.8244L60.7691 12.8242L59.0371 11.8241L35.2432 53.0272L36.9751 54.0273ZM60.7691 12.8242L62.4992 13.8275C62.4457 13.9197 62.3371 13.9902 62.2077 13.9902L62.2075 11.9902L62.2074 9.99023C60.8919 9.99035 59.6915 10.6955 59.0389 11.821L60.7691 12.8242ZM62.2075 11.9902V13.9902H65.4653V11.9902V9.99023H62.2075V11.9902ZM65.4653 11.9902L67.1968 12.9913L72.4907 3.83506L70.7593 2.83398L69.0279 1.83291L63.7339 10.9892L65.4653 11.9902ZM70.7593 2.83398L72.4897 3.83683C72.4354 3.93053 72.3265 4 72.1987 4V2V0C70.8845 0 69.6823 0.703701 69.0289 1.83114L70.7593 2.83398ZM72.1987 2V4H79.7866V2V0H72.1987V2ZM45.5913 25.3057V27.3057C44.6789 27.3057 44.144 26.3275 44.5749 25.5689L46.314 26.5566L48.053 27.5444C49.1177 25.6699 47.784 23.3057 45.5913 23.3057V25.3057ZM46.314 26.5566L44.5818 25.5568L40.0183 33.4631L41.7505 34.4629L43.4827 35.4627L48.0461 27.5564L46.314 26.5566ZM41.7505 34.4629L40.0201 33.46C40.0744 33.3664 40.1833 33.2969 40.3111 33.2969V35.2969V37.2969C41.6253 37.2969 42.8275 36.5931 43.4809 35.4658L41.7505 34.4629ZM40.3111 35.2969V33.2969H26.0679V35.2969V37.2969H40.3111V35.2969ZM26.0679 35.2969L26.0681 33.2969C26.9802 33.297 27.5153 34.2748 27.0843 35.0336L25.3452 34.0459L23.6061 33.0582C22.5415 34.9328 23.8754 37.2967 26.0677 37.2969L26.0679 35.2969ZM25.3452 34.0459L27.0773 35.0459L31.6418 27.1396L29.9097 26.1396L28.1776 25.1397L23.6132 33.0459L25.3452 34.0459ZM29.9097 26.1396L31.6398 27.143C31.5864 27.2351 31.4778 27.3057 31.3483 27.3057L31.3482 25.3057L31.348 23.3057C30.0325 23.3057 28.8321 24.011 28.1796 25.1363L29.9097 26.1396ZM31.3482 25.3057V27.3057H45.5913V25.3057V23.3057H31.3482V25.3057ZM45.5972 11.9844V13.9844C44.6846 13.9844 44.15 13.0061 44.5808 12.2476L46.3198 13.2354L48.0589 14.2231C49.1235 12.3487 47.7899 9.98438 45.5972 9.98438V11.9844ZM46.3198 13.2354L44.5877 12.2355L40.0242 20.1418L41.7564 21.1416L43.4885 22.1414L48.052 14.2352L46.3198 13.2354ZM41.7564 21.1416L40.026 20.1388C40.0803 20.0451 40.1891 19.9756 40.3169 19.9756V21.9756V23.9756C41.6311 23.9756 42.8334 23.2719 43.4868 22.1444L41.7564 21.1416ZM40.3169 21.9756V19.9756H26.0737V21.9756V23.9756H40.3169V21.9756ZM26.0737 21.9756L26.074 19.9756C26.986 19.9757 27.5212 20.9535 27.0902 21.7124L25.3511 20.7246L23.612 19.7369C22.5472 21.6116 23.8814 23.9753 26.0735 23.9756L26.0737 21.9756ZM25.3511 20.7246L27.0832 21.7246L31.6476 13.8183L29.9155 12.8184L28.1835 11.8184L23.619 19.7246L25.3511 20.7246ZM29.9155 12.8184L31.6456 13.8217C31.5923 13.9138 31.4837 13.9844 31.3542 13.9844L31.354 11.9844L31.3539 9.98438C30.0383 9.98447 28.838 10.6898 28.1854 11.815L29.9155 12.8184ZM31.354 11.9844V13.9844H45.5972V11.9844V9.98438H31.354V11.9844ZM93.1021 2V4C92.1907 4 91.6542 3.02229 92.086 2.26264L93.8247 3.25098L95.5635 4.23931C96.6296 2.36369 95.2939 0 93.1021 0V2ZM93.8247 3.25098L92.0929 2.25064L85.6026 13.487L87.3345 14.4873L89.0663 15.4876L95.5566 4.25132L93.8247 3.25098ZM87.3345 14.4873L85.6043 13.4841C85.658 13.3915 85.7666 13.3213 85.8955 13.3213L85.896 15.3213L85.8966 17.3213C87.2113 17.3209 88.412 16.6163 89.0647 15.4905L87.3345 14.4873ZM85.896 15.3213V13.3213H78.3071V15.3213V17.3213H85.896V15.3213ZM78.3071 15.3213V13.3213C79.2197 13.3213 79.7543 14.2995 79.3236 15.058L77.5845 14.0703L75.8454 13.0826C74.7809 14.957 76.1144 17.3213 78.3071 17.3213V15.3213ZM77.5845 14.0703L79.3163 15.0707L85.8066 3.83432L84.0747 2.83398L82.3429 1.83364L75.8526 13.07L77.5845 14.0703ZM84.0747 2.83398L85.8051 3.83683C85.7508 3.93053 85.6419 4 85.5142 4V2V0C84.2 0 82.9977 0.703701 82.3443 1.83114L84.0747 2.83398ZM85.5142 2V4H93.1021V2V0H85.5142V2Z" fill="white" mask="url(#path-14-inside-1_432_3200)"/>
<defs>
<linearGradient id="paint0_linear_432_3200" x1="25.2473" y1="11.5788" x2="35.3815" y2="21.1354" gradientUnits="userSpaceOnUse">
<stop stop-color="#3CDE98"/>
<stop offset="1" stop-color="#D5F863"/>
</linearGradient>
<linearGradient id="paint1_linear_432_3200" x1="25.2415" y1="24.9001" x2="35.3756" y2="34.4567" gradientUnits="userSpaceOnUse">
<stop stop-color="#3CDE98"/>
<stop offset="1" stop-color="#D5F863"/>
</linearGradient>
<linearGradient id="paint2_linear_432_3200" x1="63.9349" y1="2.12526" x2="75.3621" y2="8.40616" gradientUnits="userSpaceOnUse">
<stop stop-color="#3CDE98"/>
<stop offset="1" stop-color="#D5F863"/>
</linearGradient>
<linearGradient id="paint3_linear_432_3200" x1="77.2557" y1="2.12526" x2="88.6807" y2="8.40272" gradientUnits="userSpaceOnUse">
<stop stop-color="#3CDE98"/>
<stop offset="1" stop-color="#D5F863"/>
</linearGradient>
<linearGradient id="paint4_linear_432_3200" x1="37.4976" y1="16.8964" x2="65.1113" y2="26.6447" gradientUnits="userSpaceOnUse">
<stop stop-color="#3CDE98"/>
<stop offset="1" stop-color="#D5F863"/>
</linearGradient>
<linearGradient id="paint5_linear_432_3200" x1="178" y1="78" x2="226" y2="88" gradientUnits="userSpaceOnUse">
<stop stop-color="#3CDE98"/>
<stop offset="1" stop-color="#D5F863"/>
</linearGradient>
<linearGradient id="paint6_linear_432_3200" x1="48.3713" y1="55.3316" x2="53.7568" y2="63.9843" gradientUnits="userSpaceOnUse">
<stop stop-color="#F87355"/>
<stop offset="1" stop-color="#FFD17A"/>
</linearGradient>
<linearGradient id="paint7_linear_432_3200" x1="61.6924" y1="55.3316" x2="67.0779" y2="63.9843" gradientUnits="userSpaceOnUse">
<stop stop-color="#F87355"/>
<stop offset="1" stop-color="#FFD17A"/>
</linearGradient>
<linearGradient id="paint8_linear_432_3200" x1="10.6417" y1="71.4441" x2="30.1475" y2="91.2191" gradientUnits="userSpaceOnUse">
<stop stop-color="#F87355"/>
<stop offset="1" stop-color="#FFD17A"/>
</linearGradient>
<linearGradient id="paint9_linear_432_3200" x1="35.4618" y1="79.3924" x2="50.4085" y2="95.7293" gradientUnits="userSpaceOnUse">
<stop stop-color="#F87355"/>
<stop offset="1" stop-color="#FFD17A"/>
</linearGradient>
<linearGradient id="paint10_linear_432_3200" x1="98" y1="10" x2="114.5" y2="53" gradientUnits="userSpaceOnUse">
<stop stop-color="#F87355"/>
<stop offset="1" stop-color="#FFD17A"/>
</linearGradient>
<linearGradient id="paint11_linear_432_3200" x1="72" y1="63" x2="98" y2="100.5" gradientUnits="userSpaceOnUse">
<stop stop-color="#3CDE98"/>
<stop offset="1" stop-color="#D5F863"/>
</linearGradient>
<linearGradient id="paint12_linear_432_3200" x1="134.5" y1="63" x2="150" y2="106" gradientUnits="userSpaceOnUse">
<stop stop-color="#F87355"/>
<stop offset="1" stop-color="#FFD17A"/>
</linearGradient>
</defs>
</svg>
